<svg xmlns="http://www.w3.org/2000/svg" width="375" viewBox="0 0 375 375" height="375" version="1.0"><defs><clipPath id="a"><path d="M 174.1875 230.875 L 201.039062 230.875 L 201.039062 283.375 L 174.1875 283.375 Z M 174.1875 230.875"/></clipPath></defs><path fill="#FFF" d="M-37.5 -37.5H412.5V412.5H-37.5z"/><path fill="#FFF" d="M-37.5 -37.5H412.5V412.5H-37.5z"/><path fill="#8D6D5C" d="M-37.5 -37.5H412.5V412.5H-37.5z"/><path fill="#F1ECEC" d="M 187.421875 291.382812 C 161.058594 291.382812 136.234375 281.121094 117.609375 262.453125 C 98.941406 243.828125 88.679688 219.003906 88.679688 192.640625 C 88.679688 166.28125 98.941406 141.457031 117.609375 122.828125 C 136.234375 104.164062 161.058594 93.902344 187.421875 93.902344 C 213.785156 93.902344 238.605469 104.164062 257.234375 122.828125 C 275.898438 141.496094 286.160156 166.28125 286.160156 192.640625 C 286.160156 219.003906 275.898438 243.828125 257.234375 262.453125 C 238.605469 281.121094 213.785156 291.382812 187.421875 291.382812 Z M 187.421875 99.820312 C 162.636719 99.820312 139.3125 109.492188 121.792969 127.011719 C 104.269531 144.535156 94.601562 167.859375 94.601562 192.640625 C 94.601562 217.425781 104.269531 240.75 121.792969 258.273438 C 139.3125 275.792969 162.636719 285.460938 187.421875 285.460938 C 212.203125 285.460938 235.527344 275.792969 253.050781 258.273438 C 270.574219 240.75 280.242188 217.425781 280.242188 192.640625 C 280.242188 167.859375 270.574219 144.535156 253.050781 127.011719 C 235.527344 109.492188 212.203125 99.820312 187.421875 99.820312 Z M 187.421875 99.820312"/><g clip-path="url(#a)"><path fill="#E6C2BF" d="M 199.722656 244.847656 L 188.828125 244.847656 C 188.828125 245.355469 188.828125 245.878906 188.828125 246.410156 C 188.917969 256.613281 188.960938 261.78125 188.960938 261.914062 L 188.960938 280.378906 C 189.097656 281.042969 189.164062 281.601562 189.164062 282.042969 C 189.164062 282.355469 189.066406 282.640625 188.863281 282.90625 C 188.613281 283.242188 188.253906 283.40625 187.78125 283.40625 C 187.222656 283.40625 186.828125 283.195312 186.601562 282.773438 C 186.492188 282.554688 186.433594 282.308594 186.433594 282.042969 C 186.433594 281.734375 186.5 281.113281 186.636719 280.179688 L 186.636719 261.714844 C 186.636719 261.582031 186.671875 256.394531 186.734375 246.144531 L 186.769531 244.847656 L 178.238281 244.847656 C 176.300781 244.734375 175.066406 244.539062 174.527344 244.25 C 174.300781 244.136719 174.1875 243.894531 174.1875 243.515625 L 174.527344 242.652344 C 175.132812 242.140625 176.371094 242.007812 178.238281 242.253906 L 186.804688 242.253906 L 186.871094 238.261719 C 186.828125 236.554688 186.816406 235.234375 186.839844 234.300781 C 186.859375 232.636719 187.398438 231.496094 188.457031 230.875 C 188.613281 233.980469 188.726562 237.773438 188.792969 242.253906 L 199.722656 242.253906 C 200.601562 242.449219 201.039062 242.886719 201.039062 243.550781 C 201.039062 244.28125 200.601562 244.714844 199.722656 244.847656" fill-rule="evenodd"/></g><g fill="#F1ECEC"><g><g><path d="M 40.890625 -37.828125 L 25.671875 -37.828125 L 25.671875 0 L 16.703125 0 L 16.703125 -37.828125 L 1.5 -37.828125 L 1.5 -44.84375 L 40.890625 -44.84375 Z M 40.890625 -37.828125" transform="translate(125.65 216.721)"/></g></g></g><g fill="#F1ECEC"><g><g><path d="M 40.890625 -37.828125 L 25.671875 -37.828125 L 25.671875 0 L 16.703125 0 L 16.703125 -37.828125 L 1.5 -37.828125 L 1.5 -44.84375 L 40.890625 -44.84375 Z M 40.890625 -37.828125" transform="translate(166.14 216.721)"/></g></g></g><g fill="#F1ECEC"><g><g><path d="M 31.984375 -24.1875 C 37.742188 -22.707031 40.625 -19.109375 40.625 -13.390625 C 40.625 -9.535156 39.421875 -6.5 37.015625 -4.28125 C 34.609375 -2.070312 31.71875 -0.734375 28.34375 -0.265625 C 26.820312 -0.0859375 24.738281 0 22.09375 0 L 5.78125 0 L 5.78125 -44.84375 L 21.84375 -44.84375 C 24.226562 -44.84375 26.15625 -44.757812 27.625 -44.59375 C 31.21875 -44.15625 34 -42.9375 35.96875 -40.9375 C 37.945312 -38.945312 38.9375 -36.4375 38.9375 -33.40625 C 38.9375 -28.851562 36.617188 -25.78125 31.984375 -24.1875 Z M 14.75 -37.828125 L 14.75 -26.453125 L 21.515625 -26.453125 C 22.597656 -26.453125 23.660156 -26.519531 24.703125 -26.65625 C 27.953125 -27.175781 29.578125 -29.035156 29.578125 -32.234375 C 29.578125 -35.398438 27.882812 -37.203125 24.5 -37.640625 C 23.457031 -37.765625 22.375 -37.828125 21.25 -37.828125 Z M 25.546875 -7.15625 C 27.191406 -7.28125 28.546875 -7.882812 29.609375 -8.96875 C 30.671875 -10.050781 31.203125 -11.503906 31.203125 -13.328125 C 31.203125 -17.097656 29.273438 -19.175781 25.421875 -19.5625 C 24.335938 -19.695312 23.273438 -19.765625 22.234375 -19.765625 L 14.75 -19.765625 L 14.75 -7.078125 L 22.5625 -7.078125 C 23.988281 -7.078125 24.984375 -7.101562 25.546875 -7.15625 Z M 25.546875 -7.15625" transform="translate(206.63 216.721)"/></g></g></g><g fill="#E6C2BF"><g><g><path d="M 0.667969 -5.585938 L -7.710938 -6.589844 L -7.351562 -9.578125 L -9.574219 -9.84375 L -10.589844 -1.378906 L -8.367188 -1.113281 L -8.007812 -4.101562 L 0.371094 -3.097656 Z M 0.667969 -5.585938" transform="translate(113.86 190.274)"/></g></g></g><g fill="#E6C2BF"><g><g><path d="M -2.453125 -8.636719 C -2.730469 -9.679688 -3.539062 -10.5 -4.851562 -10.847656 C -7.097656 -11.441406 -8.324219 -10.300781 -8.824219 -8.40625 L -10.109375 -3.535156 L 0.214844 -0.8125 L 0.851562 -3.234375 L -3.125 -4.285156 L -2.609375 -6.246094 L 1.765625 -6.699219 L 2.441406 -9.253906 Z M -6.75 -7.496094 C -6.542969 -8.28125 -6.078125 -8.609375 -5.402344 -8.429688 C -4.699219 -8.246094 -4.457031 -7.734375 -4.664062 -6.949219 L -5.222656 -4.835938 L -7.304688 -5.386719 Z M -6.75 -7.496094" transform="translate(115.027 180.703)"/></g></g></g><g fill="#E6C2BF"><g><g><path d="M 1.203125 -3.121094 L -8.761719 -6.960938 L -9.660156 -4.625 L 0.300781 -0.785156 Z M 1.203125 -3.121094" transform="translate(118.024 170.185)"/></g></g></g><g fill="#E6C2BF"><g><g><path d="M 2.902344 -5.605469 L -4.898438 -13.757812 L -6.121094 -11.398438 L -0.21875 -5.691406 L -8.285156 -7.222656 L -9.507812 -4.859375 L 1.652344 -3.195312 Z M 2.902344 -5.605469" transform="translate(119.816 165.255)"/></g></g></g><g fill="#E6C2BF"><g><g><path d="M 1.855469 -2.785156 L -7.03125 -8.703125 L -8.421875 -6.621094 L 0.464844 -0.699219 Z M 1.855469 -2.785156" transform="translate(125.034 155.642)"/></g></g></g><g fill="#E6C2BF"><g><g><path d="M 1.726562 -2.058594 L 0.628906 -3.730469 L 2.917969 -6.453125 L 4.753906 -5.65625 L 6.464844 -7.695312 L -4.0625 -11.765625 L -5.808594 -9.6875 L 0.0195312 -0.0195312 Z M -2.800781 -8.933594 L 0.832031 -7.34375 L -0.609375 -5.628906 Z M -2.800781 -8.933594" transform="translate(127.85 151.221)"/></g></g></g><g fill="#E6C2BF"><g><g><path d="M 4.425781 -3.472656 L -0.785156 -10.113281 L 1.582031 -11.96875 L 0.199219 -13.730469 L -6.507812 -8.46875 L -5.125 -6.707031 L -2.757812 -8.566406 L 2.453125 -1.925781 Z M 4.425781 -3.472656" transform="translate(138.545 139.528)"/></g></g></g><g fill="#E6C2BF"><g><g><path d="M 2.902344 -1.664062 L 0.800781 -5.320312 L 4.320312 -7.339844 L 6.421875 -3.6875 L 8.59375 -4.933594 L 3.273438 -14.195312 L 1.101562 -12.945312 L 3.207031 -9.28125 L -0.3125 -7.261719 L -2.417969 -10.925781 L -4.589844 -9.679688 L 0.726562 -0.417969 Z M 2.902344 -1.664062" transform="translate(146.103 133.58)"/></g></g></g><g fill="#E6C2BF"><g><g><path d="M 5.550781 -7.058594 C 6.230469 -7.894531 6.421875 -9.03125 5.929688 -10.296875 C 5.089844 -12.464844 3.449219 -12.789062 1.621094 -12.082031 L -3.074219 -10.261719 L 0.78125 -0.304688 L 3.117188 -1.207031 L 1.632812 -5.046875 L 3.523438 -5.777344 L 6.460938 -2.503906 L 8.925781 -3.457031 Z M 2.105469 -9.867188 C 2.863281 -10.160156 3.398438 -9.976562 3.652344 -9.324219 C 3.914062 -8.644531 3.640625 -8.148438 2.882812 -7.855469 L 0.847656 -7.066406 L 0.0703125 -9.078125 Z M 2.105469 -9.867188" transform="translate(156.21 127.885)"/></g></g></g><g fill="#E6C2BF"><g><g><path d="M 5.699219 -0.988281 C 9.242188 -1.753906 10.347656 -4.65625 9.71875 -7.570312 C 9.085938 -10.484375 6.886719 -12.644531 3.34375 -11.878906 C -0.226562 -11.105469 -1.324219 -8.234375 -0.691406 -5.320312 C -0.0625 -2.40625 2.128906 -0.21875 5.699219 -0.988281 Z M 5.226562 -3.179688 C 3.585938 -2.824219 2.320312 -3.894531 1.894531 -5.878906 C 1.464844 -7.847656 2.175781 -9.335938 3.816406 -9.6875 C 5.460938 -10.042969 6.707031 -8.980469 7.132812 -7.011719 C 7.5625 -5.027344 6.867188 -3.53125 5.226562 -3.179688 Z M 5.226562 -3.179688" transform="translate(166.204 124.011)"/></g></g></g><g fill="#E6C2BF"><g><g><path d="M 5.28125 -0.0390625 C 8.566406 -0.210938 9.714844 -2.050781 9.589844 -4.496094 L 9.238281 -11.175781 L 6.722656 -11.042969 L 7.074219 -4.363281 C 7.128906 -3.273438 6.785156 -2.359375 5.164062 -2.273438 C 3.527344 -2.1875 3.089844 -3.0625 3.035156 -4.152344 L 2.683594 -10.832031 L 0.167969 -10.703125 L 0.519531 -4.019531 C 0.644531 -1.574219 1.984375 0.132812 5.28125 -0.0390625 Z M 5.28125 -0.0390625" transform="translate(178.288 121.503)"/></g></g></g><g fill="#E6C2BF"><g><g><path d="M 5.707031 0.859375 C 6.679688 0.96875 7.816406 0.878906 8.664062 -0.0546875 L 8.554688 0.933594 L 10.824219 1.179688 L 11.46875 -4.746094 L 6.765625 -5.261719 L 6.550781 -3.257812 L 8.761719 -3.015625 C 8.542969 -1.660156 7.632812 -1.183594 6.226562 -1.335938 C 4.277344 -1.546875 3.421875 -2.964844 3.640625 -4.980469 C 3.859375 -6.984375 5 -8.167969 6.671875 -7.988281 C 7.976562 -7.84375 8.6875 -7.234375 8.820312 -6.148438 L 11.546875 -5.851562 C 11.449219 -8.183594 9.917969 -9.886719 6.914062 -10.214844 C 3.28125 -10.609375 1.332031 -8.230469 1.011719 -5.269531 C 0.6875 -2.304688 2.074219 0.464844 5.707031 0.859375 Z M 5.707031 0.859375" transform="translate(189.613 120.932)"/></g></g></g><g fill="#E6C2BF"><g><g><path d="M 3.222656 0.894531 L 4.347656 -3.164062 L 8.261719 -2.078125 L 7.132812 1.980469 L 9.546875 2.648438 L 12.402344 -7.640625 L 9.988281 -8.308594 L 8.859375 -4.238281 L 4.949219 -5.320312 L 6.078125 -9.394531 L 3.664062 -10.066406 L 0.808594 0.222656 Z M 3.222656 0.894531" transform="translate(201.879 122.363)"/></g></g></g><g fill="#E6C2BF"><g><g><path d="M 4.984375 2.605469 L 8.894531 -4.871094 L 11.5625 -3.480469 L 12.597656 -5.464844 L 5.046875 -9.410156 L 4.007812 -7.425781 L 6.675781 -6.035156 L 2.765625 1.445312 Z M 4.984375 2.605469" transform="translate(217.594 127.465)"/></g></g></g><g fill="#E6C2BF"><g><g><path d="M 2.710938 1.960938 L 5.179688 -1.453125 L 8.46875 0.921875 L 6 4.335938 L 8.03125 5.804688 L 14.285156 -2.847656 L 12.253906 -4.316406 L 9.78125 -0.890625 L 6.492188 -3.269531 L 8.964844 -6.695312 L 6.9375 -8.160156 L 0.679688 0.492188 Z M 2.710938 1.960938" transform="translate(226.122 131.91)"/></g></g></g><g fill="#E6C2BF"><g><g><path d="M 5.835938 5.660156 L 7.394531 4.054688 L 3.960938 0.722656 L 5.34375 -0.707031 L 8.449219 2.304688 L 9.996094 0.707031 L 6.894531 -2.300781 L 8.277344 -3.730469 L 11.710938 -0.398438 L 13.269531 -2.003906 L 8.035156 -7.082031 L 0.601562 0.585938 Z M 5.835938 5.660156" transform="translate(235.473 138.835)"/></g></g></g><g fill="#E6C2BF"><g><g><path d="M 3.03125 4.472656 C 3.265625 4.820312 4.085938 6.023438 5.3125 6.441406 C 6.035156 6.679688 7.011719 6.574219 7.878906 5.984375 C 8.957031 5.253906 9.28125 4.1875 8.800781 2.976562 C 9.628906 3.53125 10.609375 3.476562 11.582031 2.816406 C 12.207031 2.394531 12.550781 1.90625 12.675781 1.3125 C 12.855469 0.480469 12.546875 -0.523438 11.761719 -1.683594 L 9.308594 -5.296875 L 0.472656 0.695312 Z M 8.863281 -1.96875 L 9.601562 -0.878906 C 10.007812 -0.277344 10.15625 0.0625 10.136719 0.363281 C 10.125 0.644531 9.980469 0.875 9.6875 1.074219 C 9.109375 1.464844 8.570312 1.292969 8.074219 0.5625 L 7.148438 -0.804688 Z M 5.527344 0.292969 L 6.601562 1.882812 C 7.175781 2.726562 7.378906 3.300781 6.648438 3.792969 C 6.324219 4.015625 6.050781 4.0625 5.796875 3.984375 C 5.394531 3.867188 5.058594 3.46875 4.703125 2.949219 L 3.730469 1.511719 Z M 5.527344 0.292969" transform="translate(245.515 149.325)"/></g></g></g><g fill="#E6C2BF"><g><g><path d="M 1.5625 2.957031 L 11.003906 -2.035156 L 9.832031 -4.25 L 0.390625 0.742188 Z M 1.5625 2.957031" transform="translate(251.44 158.438)"/></g></g></g><g fill="#E6C2BF"><g><g><path d="M 1.988281 5.023438 C 2.140625 5.414062 2.679688 6.765625 3.789062 7.441406 C 4.4375 7.832031 5.414062 7.941406 6.390625 7.554688 C 7.601562 7.074219 8.152344 6.105469 7.941406 4.820312 C 8.632812 5.539062 9.601562 5.699219 10.691406 5.265625 C 11.394531 4.988281 11.839844 4.585938 12.089844 4.035156 C 12.445312 3.261719 12.359375 2.210938 11.84375 0.910156 L 10.238281 -3.148438 L 0.308594 0.78125 Z M 9.078125 0.00390625 L 9.5625 1.226562 C 9.828125 1.90625 9.898438 2.269531 9.816406 2.558594 C 9.742188 2.828125 9.550781 3.023438 9.226562 3.152344 C 8.574219 3.410156 8.082031 3.121094 7.757812 2.300781 L 7.152344 0.765625 Z M 5.328125 1.488281 L 6.035156 3.269531 C 6.410156 4.21875 6.484375 4.824219 5.664062 5.148438 C 5.300781 5.292969 5.023438 5.28125 4.792969 5.148438 C 4.425781 4.945312 4.183594 4.484375 3.953125 3.898438 L 3.3125 2.285156 Z M 5.328125 1.488281" transform="translate(253.978 163.031)"/></g></g></g><g fill="#E6C2BF"><g><g><path d="M 1.863281 7.46875 L 4.035156 6.925781 L 2.980469 2.703125 L 11.171875 0.660156 L 10.5625 -1.769531 L 0.203125 0.816406 Z M 1.863281 7.46875" transform="translate(257.819 173.08)"/></g></g></g><g fill="#E6C2BF"><g><g><path d="M 0.964844 8.074219 L 3.1875 7.808594 L 2.621094 3.054688 L 4.59375 2.820312 L 5.109375 7.113281 L 7.316406 6.847656 L 6.804688 2.554688 L 8.777344 2.320312 L 9.34375 7.070312 L 11.570312 6.804688 L 10.703125 -0.433594 L 0.101562 0.832031 Z M 0.964844 8.074219" transform="translate(259.912 181.595)"/></g></g></g></svg>